<?xml version="1.0" encoding="utf-8"?>
<!-- Generator: Adobe Illustrator 28.1.0, SVG Export Plug-In . SVG Version: 6.00 Build 0)  -->
<svg version="1.1" id="Layer_1" xmlns="http://www.w3.org/2000/svg" xmlns:xlink="http://www.w3.org/1999/xlink" x="0px" y="0px"
	 viewBox="0 0 500 500" style="enable-background:new 0 0 500 500;" xml:space="preserve">
<style type="text/css">
	.st0{fill:#FFFFFF;}
	.st1{clip-path:url(#SVGID_00000065053779975845644850000012560924176780861608_);}
	.st2{clip-path:url(#SVGID_00000136383423942866317400000001102055599692486079_);}
	.st3{clip-path:url(#SVGID_00000000222747779871648500000012684408365035664273_);}
	.st4{fill:#F534B3;}
	.st5{fill:#5E17EB;}
	.st6{fill:#34E5B5;}
	.st7{fill:#242424;}
</style>
<g>
	<path d="M326.4,286.8l1.5,0.5c5.8,2.1,9.6,7.5,9.6,13.6v22.2c0,6.1-3.9,11.6-9.6,13.6l-1.5,0.5V286.8z"/>
	<path class="st0" d="M327.6,288.4c5.2,1.9,8.9,6.7,8.9,12.6v22.2c0,5.8-3.7,10.7-8.9,12.6V288.4 M325.3,285.2v3.1v47.3v3.1l3-1
		c6.2-2.2,10.4-8.1,10.4-14.7v-22.2c0-6.6-4.1-12.4-10.4-14.7L325.3,285.2L325.3,285.2z"/>
</g>
<g>
	<g>
		<defs>
			<rect id="SVGID_1_" x="287" y="269.2" width="32.6" height="85"/>
		</defs>
		<clipPath id="SVGID_00000070111978460402102920000013158178922566439865_">
			<use xlink:href="#SVGID_1_"  style="overflow:visible;"/>
		</clipPath>
		<g style="clip-path:url(#SVGID_00000070111978460402102920000013158178922566439865_);">
			<g>
				<path d="M296.5,355.3c-5.5,0-10-4.5-10-10v-66.7c0-5.5,4.5-10,10-10h13.3c5.5,0,10,4.5,10,10v66.7c0,5.5-4.5,10-10,10H296.5z"/>
				<path class="st0" d="M309.8,269.8c4.9,0,8.9,4,8.9,8.9v66.7c0,4.9-4,8.9-8.9,8.9h-13.3c-4.9,0-8.9-4-8.9-8.9v-66.7
					c0-4.9,4-8.9,8.9-8.9H309.8 M309.8,267.6h-13.3c-6.1,0-11.1,5-11.1,11.1v66.7c0,6.1,5,11.1,11.1,11.1h13.3
					c6.1,0,11.1-5,11.1-11.1v-66.7C320.9,272.6,315.9,267.6,309.8,267.6L309.8,267.6z"/>
			</g>
		</g>
	</g>
</g>
<g>
	<path d="M171.7,336.7c-5.8-2.1-9.6-7.5-9.6-13.6v-22.2c0-6.1,3.9-11.6,9.6-13.6l1.5-0.5v50.5L171.7,336.7z"/>
	<path class="st0" d="M172,288.4v47.3c-5.2-1.9-8.9-6.7-8.9-12.6v-22.2C163.2,295.1,166.9,290.2,172,288.4 M174.3,285.2l-3,1
		c-6.2,2.2-10.4,8.1-10.4,14.7v22.2c0,6.6,4.1,12.4,10.4,14.7l3,1v-3.1v-47.3V285.2L174.3,285.2z"/>
</g>
<g>
	<g>
		<defs>
			<rect id="SVGID_00000150066182193387595850000003810059539203236226_" x="180.3" y="269.2" width="32.6" height="85"/>
		</defs>
		<clipPath id="SVGID_00000170960582594261453680000001046333316095789720_">
			<use xlink:href="#SVGID_00000150066182193387595850000003810059539203236226_"  style="overflow:visible;"/>
		</clipPath>
		<g style="clip-path:url(#SVGID_00000170960582594261453680000001046333316095789720_);">
			<g>
				<path d="M189.8,355.3c-5.5,0-10-4.5-10-10v-66.7c0-5.5,4.5-10,10-10h13.3c5.5,0,10,4.5,10,10v66.7c0,5.5-4.5,10-10,10H189.8z"/>
				<path class="st0" d="M203.1,269.8c4.9,0,8.9,4,8.9,8.9v66.7c0,4.9-4,8.9-8.9,8.9h-13.3c-4.9,0-8.9-4-8.9-8.9v-66.7
					c0-4.9,4-8.9,8.9-8.9H203.1 M203.1,267.6h-13.3c-6.1,0-11.1,5-11.1,11.1v66.7c0,6.1,5,11.1,11.1,11.1h13.3
					c6.1,0,11.1-5,11.1-11.1v-66.7C214.3,272.6,209.3,267.6,203.1,267.6L203.1,267.6z"/>
			</g>
		</g>
	</g>
</g>
<g>
	<path d="M300.5,188.5c-2.9,0-5.7-0.9-8.1-2.4c-12.6-8.4-27.3-12.8-42.5-12.8c-15.3,0-29.9,4.4-42.5,12.8c-2.4,1.6-5.3,2.4-8.1,2.4
		c-2.7,0-5.4-0.7-7.7-2.2l-1.3-0.8l1.1-1c16.1-14.4,36.9-22.4,58.5-22.4s42.4,7.9,58.5,22.4l1.1,1l-1.3,0.8
		C305.9,187.7,303.2,188.5,300.5,188.5L300.5,188.5z"/>
	<path class="st0" d="M249.8,163.2c20.7,0,41.3,7.4,57.8,22.1c-2.2,1.4-4.7,2.1-7.1,2.1c-2.7,0-5.3-0.7-7.5-2.3
		c-13-8.7-28.1-13-43.1-13c-15.1,0-30.1,4.4-43.1,13c-2.3,1.5-4.9,2.3-7.5,2.3c-2.4,0-5-0.7-7.1-2.1
		C208.5,170.6,229.1,163.2,249.8,163.2 M249.8,160.9c-21.8,0-42.9,8.1-59.2,22.7l-2.1,1.9l2.4,1.6c2.5,1.6,5.3,2.4,8.3,2.4
		c3.1,0,6.1-0.9,8.7-2.7c12.4-8.3,26.9-12.7,41.9-12.7c15,0,29.5,4.4,41.8,12.7c2.6,1.7,5.6,2.7,8.7,2.7c3,0,5.9-0.8,8.3-2.4
		l2.4-1.6l-2.1-1.9C292.8,169,271.7,160.9,249.8,160.9L249.8,160.9z"/>
</g>
<g>
	<g>
		<defs>
			<rect id="SVGID_00000053526025371318269200000003224851757884916156_" x="145.4" y="145.4" width="208.8" height="165.3"/>
		</defs>
		<clipPath id="SVGID_00000073712887592340009760000010554170809485075864_">
			<use xlink:href="#SVGID_00000053526025371318269200000003224851757884916156_"  style="overflow:visible;"/>
		</clipPath>
		<g style="clip-path:url(#SVGID_00000073712887592340009760000010554170809485075864_);">
			<g>
				<path d="M344.2,310.9v-61.1c0-52.1-42.4-94.4-94.4-94.4s-94.4,42.4-94.4,94.4v61.1h-1.1c-5.5,0-10-4.5-10-10v-51.1
					c0-58.2,47.3-105.5,105.5-105.5s105.5,47.3,105.5,105.5v51.1c0,5.5-4.5,10-10,10H344.2z"/>
				<path class="st0" d="M249.8,145.4c57.6,0,104.4,46.9,104.4,104.4v51.1c0,4.9-4,8.9-8.9,8.9c0-7.6,0-51.2,0-60
					c0-52.8-42.7-95.5-95.5-95.5s-95.5,42.7-95.5,95.5c0,7.8,0,51.3,0,60c-4.9,0-8.9-4-8.9-8.9v-51.1
					C145.4,192.3,192.3,145.4,249.8,145.4 M249.8,143.2c-58.8,0-106.6,47.8-106.6,106.6v51.1c0,6.1,5,11.1,11.1,11.1h2.2v-2.2v-60
					c0-25,9.7-48.4,27.3-66s41-27.3,66-27.3s48.4,9.7,66,27.3c17.6,17.6,27.3,41,27.3,66v60v2.2h2.2c6.1,0,11.1-5,11.1-11.1v-51.1
					C356.4,191,308.6,143.2,249.8,143.2L249.8,143.2z"/>
			</g>
		</g>
	</g>
</g>
<g>
	<g transform="translate(98.829308, 200.165362)">
		<g>
			<g>
				<path class="st4" d="M102,61.5L83.5,13.6c-0.1-0.5-1-0.5-1.3,0L63.6,61.5c-0.1,0.4,0.1,0.7,0.6,0.7h8.4c0.2,0,0.5-0.1,0.6-0.4
					l9.6-27.3l9.8,27.3c0.1,0.2,0.4,0.4,0.5,0.4h8.4C101.9,62.3,102.3,61.9,102,61.5z"/>
			</g>
		</g>
	</g>
</g>
<g>
	<g transform="translate(137.436867, 200.165362)">
		<g>
			<g>
				<path d="M107,50.5h9.3V13.8c0-0.2-0.2-0.5-0.7-0.5h-8.1c-0.2,0-0.5,0.1-0.7,0.4L90.1,49.5L72.5,13.6c-0.1-0.1-0.4-0.4-0.6-0.4
					h-8.3c-0.4,0-0.6,0.3-0.6,0.5v48c0,0.2,0.1,0.5,0.6,0.5h8.1c0.4,0,0.7-0.3,0.7-0.5V34.2L85.7,60c0.1,0.1,0.4,0.4,0.6,0.4h7.6
					c0.1,0,0.5-0.1,0.5-0.4l12.5-25L107,50.5L107,50.5z"/>
			</g>
		</g>
	</g>
</g>
<g>
	<g transform="translate(181.804109, 200.165374)">
		<g>
			<g>
				<path d="M79.2,12.7H63.1c-0.3,0-0.6,0.3-0.6,0.6v8.5h16.7c1.1,0,7.3,0.3,7.3,5.8s-6.1,5.6-7.3,5.6H62.5v28.7
					c0,0.2,0.3,0.6,0.6,0.6h8.1c0.4,0,0.6-0.3,0.6-0.6V42.3h7.4c1.2,0,16.7-0.1,16.7-14.7S81.2,12.7,79.2,12.7z"/>
			</g>
		</g>
	</g>
</g>
<g>
	<g transform="translate(216.192206, 199.589033)">
		<g>
			<g>
				<path class="st5" d="M85.4,53.2H71.4v-11h19.3c0.4,0,0.7-0.3,0.7-0.5v-7.8c0-0.3-0.3-0.5-0.7-0.5H71.4V22.2h13.9v-8.9H62.8
					c-0.4,0-0.7,0.3-0.7,0.5v47.9c0,0.2,0.3,0.5,0.7,0.5h22.6V53.2z"/>
			</g>
		</g>
	</g>
</g>
<g>
	<g transform="translate(236.380887, 199.589033)">
		<g>
			<g>
				<path class="st6" d="M70.5,13.2h-8c-0.4,0-0.7,0.3-0.7,0.5V33h9.4V22.2c10.7-0.5,18.6,3.9,18.6,15.6c0,15.1-12.6,15.8-18.6,15.5
					V42.5h-9.4v19.3c0,0.2,0.3,0.5,0.7,0.5h8c12.2,0,28.7-3.6,28.7-24.5C99.2,16.1,82.5,13.2,70.5,13.2z"/>
			</g>
		</g>
	</g>
</g>
<g>
	<g transform="translate(174.42452, 249.982016)">
		<g>
			<g>
				<path class="st7" d="M62.8,62.8c-0.7,0-1.3-0.6-1.3-1.3v-12c0-0.7,0.6-1.3,1.3-1.3h6.8v4.4h-3.5v0.6h3.7c0.7,0,1.3,0.6,1.3,1.3
					v1.9c0,0.7-0.6,1.3-1.3,1.3h-3.7v0.5h3.5v4.5L62.8,62.8L62.8,62.8z"/>
				<path class="st0" d="M68.4,49.3v2.2H65v2.8h4.8c0.1,0,0.1,0.1,0.1,0.1v1.9c0,0.1-0.1,0.1-0.1,0.1H65v2.7h3.5v2.3h-5.7
					c-0.1,0-0.1-0.1-0.1-0.1v-12c0-0.1,0.1-0.1,0.1-0.1L68.4,49.3 M70.7,47.1h-2.2h-5.7c-1.3,0-2.4,1-2.4,2.4v12
					c0,1.3,1,2.4,2.4,2.4h5.7h2.2v-2.2v-2.3v-0.7c0.9-0.4,1.5-1.2,1.5-2.2v-1.9c0-1-0.6-1.9-1.5-2.2v-0.7v-2.2V47.1L70.7,47.1z"/>
			</g>
		</g>
	</g>
</g>
<g>
	<g transform="translate(182.230993, 249.982016)">
		<g>
			<g>
				<path class="st7" d="M65.2,62.8v-4.4h1.1c0.2,0,0.4-0.1,0.4-0.2c0-0.2-0.3-0.4-0.4-0.4l0,0c-0.3,0-1.3-0.1-2.2-0.5
					c-1.7-0.7-2.7-2.3-2.7-4.1c0-3.1,2.5-4.8,5-4.8c2.7,0,4.7,1.9,4.9,4.4l0.1,0.4l-0.4,0.5c-0.2,0.3-0.7,0.5-1,0.5h-0.8
					c1.3,0.8,2.1,2.3,2.1,4c0,2.7-2.1,4.7-4.9,4.7L65.2,62.8L65.2,62.8z M66.3,52.7c-0.4,0-0.4,0.2-0.4,0.4c0,0.2,0.3,0.2,0.4,0.2
					c0.1,0,0.3,0,0.5,0c-0.1-0.1-0.1-0.3-0.1-0.4C66.7,52.8,66.7,52.7,66.3,52.7z"/>
				<path class="st0" d="M66.3,49.3c2.1,0,3.7,1.4,3.8,3.5c0,0.1-0.1,0.1-0.1,0.1H68c-0.1,0-0.1-0.1-0.1-0.1c0-0.9-0.7-1.3-1.5-1.3
					c-0.8,0-1.6,0.5-1.6,1.5c0,0.9,0.7,1.3,1.6,1.3c0.1,0,1,0,1.8,0.4c1.3,0.6,2,1.8,2,3.3c0,2.3-1.9,3.6-3.8,3.6l0,0v-2.2l0,0
					c0.8,0,1.6-0.6,1.6-1.3c0-0.9-0.8-1.5-1.6-1.5c-0.1,0-1,0-1.9-0.4c-1.3-0.6-2-1.7-2-3.1C62.5,50.8,64.4,49.3,66.3,49.3
					 M66.3,47.1c-3.4,0-6.1,2.6-6.1,5.9c0,2.3,1.2,4.1,3.3,5.1c0.1,0.1,0.4,0.1,0.5,0.2v1v2.2v2.2h2.2c3.5,0,6.1-2.5,6.1-5.8
					c0-1.3-0.4-2.4-1-3.3c0.2-0.1,0.4-0.3,0.5-0.5c0.3-0.4,0.4-1,0.4-1.5C72.3,49.6,69.7,47.1,66.3,47.1L66.3,47.1z"/>
			</g>
		</g>
	</g>
</g>
<g>
	<g transform="translate(190.34847, 249.982016)">
		<g>
			<g>
				<path class="st7" d="M65.1,62.8c-0.7,0-1.3-0.6-1.3-1.3v-8.8h4.6v8.8c0,0.7-0.6,1.3-1.3,1.3C67.2,62.8,65.1,62.8,65.1,62.8z
					 M62.6,52.6c-0.7,0-1.3-0.6-1.3-1.3v-1.9c0-0.7,0.6-1.3,1.3-1.3h7c0.7,0,1.3,0.6,1.3,1.3v1.9c0,0.7-0.6,1.3-1.3,1.3H62.6z"/>
				<path class="st0" d="M69.6,49.3c0.1,0,0.1,0.1,0.1,0.1v1.9c0,0.1-0.1,0.1-0.1,0.1h-7c-0.1,0-0.1-0.1-0.1-0.1v-1.9
					c0-0.1,0.1-0.1,0.1-0.1H69.6 M67.3,53.8v7.7c0,0.1-0.1,0.1-0.1,0.1h-2c-0.1,0-0.1-0.1-0.1-0.1v-7.7H67.3 M69.6,47.1h-7
					c-1.3,0-2.4,1-2.4,2.4v1.9c0,1.3,1,2.4,2.4,2.4h0.1v0.1v7.7c0,1.3,1,2.4,2.4,2.4h2c1.3,0,2.4-1,2.4-2.4v-7.8v-0.1h0.1
					c1.3,0,2.4-1,2.4-2.4v-1.9C72,48.2,71,47.1,69.6,47.1L69.6,47.1z"/>
			</g>
		</g>
	</g>
</g>
<g>
	<g transform="translate(198.201588, 249.982016)">
		<g>
			<g>
				<path class="st7" d="M63.4,62.8c-1.2,0-2.2-1-2.2-2.2c0-1.2,1-2.2,2.2-2.2c1.3,0,2.2,1,2.2,2.2C65.7,61.8,64.6,62.8,63.4,62.8z"
					/>
				<path class="st0" d="M63.4,59.5c0.6,0,1.1,0.5,1.1,1.1c0,0.6-0.5,1.1-1.1,1.1c-0.6,0-1.1-0.4-1.1-1.1
					C62.3,60,62.8,59.5,63.4,59.5 M63.4,57.3c-1.9,0-3.3,1.5-3.3,3.3s1.5,3.3,3.3,3.3s3.3-1.5,3.3-3.3
					C66.8,58.8,65.2,57.3,63.4,57.3L63.4,57.3z"/>
			</g>
		</g>
	</g>
</g>
<g>
	<g transform="translate(171.881552, 271.732014)">
		<g>
			<g>
				<path class="st7" d="M62.8,62.5c-0.7,0-1.3-0.6-1.3-1.3V59l3.9-5.3c-0.1,0.1-0.4,0.1-0.6,0.1h-1.9c-0.7,0-1.3-0.5-1.3-1.3
					c0-2.8,1.8-4.7,4.6-4.7c2.5,0,4.6,1.9,4.6,4.3c0,1-0.4,2.1-1.1,3l-2,2.7h2c0.7,0,1.3,0.6,1.3,1.3v2c0,0.7-0.6,1.3-1.3,1.3
					C69.8,62.5,62.8,62.5,62.8,62.5z M66.2,52.4c-0.1,0.1-0.1,0.1-0.1,0.1s0,0.1,0,0.1c0,0.1,0,0.1,0,0.1
					C66.2,52.6,66.2,52.4,66.2,52.4z"/>
				<path class="st0" d="M66.3,49.1c1.8,0,3.5,1.3,3.5,3.2c0,0.7-0.3,1.6-0.9,2.4l-3.4,4.4h4.2c0.1,0,0.1,0.1,0.1,0.1v2
					c0,0.1-0.1,0.1-0.1,0.1h-6.9c-0.1,0-0.1-0.1-0.1-0.1v-1.9l4.3-5.9c0.3-0.4,0.4-0.7,0.4-1.1c0-0.6-0.4-1-1.1-1
					c-0.6,0-1.3,0.4-1.3,1.3c0,0.1-0.1,0.1-0.1,0.1h-1.9c-0.1,0-0.1-0.1-0.1-0.1C62.8,50.7,63.8,49.1,66.3,49.1 M66.3,46.9
					c-3.4,0-5.7,2.3-5.7,5.8c0,1.3,1,2.4,2.4,2.4h0.1l-2.3,3.1l-0.4,0.6v0.7v1.9c0,1.3,1,2.4,2.4,2.4h6.9c1.3,0,2.4-1,2.4-2.4v-2
					c0-1.3-1-2.2-2.1-2.4l0.7-0.9c0.9-1.1,1.3-2.4,1.3-3.7C72,49.3,69.4,46.9,66.3,46.9L66.3,46.9z"/>
			</g>
		</g>
	</g>
</g>
<g>
	<g transform="translate(179.59472, 271.732014)">
		<g>
			<g>
				<path class="st7" d="M66.1,62.5c-2.3,0-4.7-1.6-4.7-4.5v-5.4c0-3,2.4-4.5,4.7-4.5s4.7,1.6,4.7,4.5V58
					C70.8,61,68.4,62.5,66.1,62.5z M66.1,52.2c-0.1,0-0.1,0.1-0.1,0.2V58c0,0.1,0,0.2,0.1,0.2c0.1,0,0.1-0.1,0.1-0.2v-5.6
					C66.3,52.3,66.3,52.2,66.1,52.2z"/>
				<path class="st0" d="M66.1,49.1c1.8,0,3.6,1.2,3.6,3.4v5.4c0,2.3-1.8,3.4-3.6,3.4s-3.6-1.2-3.6-3.4v-5.4
					C62.6,50.3,64.4,49.1,66.1,49.1 M66.1,59.3c0.7,0,1.3-0.4,1.3-1.3v-5.6c0-0.9-0.7-1.3-1.3-1.3c-0.7,0-1.3,0.4-1.3,1.3V58
					C64.9,58.9,65.5,59.3,66.1,59.3 M66.1,46.9c-3.3,0-5.8,2.4-5.8,5.6v5.4c0,3.3,2.5,5.6,5.8,5.6s5.8-2.4,5.8-5.6v-5.4
					C71.9,49.3,69.4,46.9,66.1,46.9L66.1,46.9z"/>
			</g>
		</g>
	</g>
</g>
<g>
	<g transform="translate(187.18348, 271.732014)">
		<g>
			<g>
				<path class="st7" d="M62.6,62.5c-0.7,0-1.3-0.6-1.3-1.3V59l3.9-5.3c-0.1,0.1-0.4,0.1-0.6,0.1h-1.9c-0.7,0-1.3-0.5-1.3-1.3
					c0-2.8,1.8-4.7,4.6-4.7c2.5,0,4.6,1.9,4.6,4.3c0,1-0.4,2.1-1.1,3l-2,2.7h2c0.7,0,1.3,0.6,1.3,1.3v2c0,0.7-0.6,1.3-1.3,1.3
					C69.6,62.5,62.6,62.5,62.6,62.5z M66,52.4c-0.1,0.1-0.1,0.1-0.1,0.1s0,0.1,0,0.1c0,0.1,0,0.1,0,0.1C66,52.6,66,52.4,66,52.4z"/>
				<path class="st0" d="M66.1,49.1c1.8,0,3.5,1.3,3.5,3.2c0,0.7-0.3,1.6-0.9,2.4l-3.4,4.4h4.3c0.1,0,0.1,0.1,0.1,0.1v2
					c0,0.1-0.1,0.1-0.1,0.1h-6.9c-0.1,0-0.1-0.1-0.1-0.1v-1.9l4.3-5.9c0.3-0.4,0.4-0.7,0.4-1.1c0-0.6-0.4-1-1.1-1
					c-0.6,0-1.3,0.4-1.3,1.3c0,0.1-0.1,0.1-0.1,0.1h-1.9c-0.1,0-0.1-0.1-0.1-0.1C62.6,50.7,63.6,49.1,66.1,49.1 M66.1,46.9
					c-3.4,0-5.7,2.3-5.7,5.8c0,1.3,1,2.4,2.4,2.4h0.1l-2.2,3.1l-0.4,0.6v0.7v1.9c0,1.3,1,2.4,2.4,2.4h7c1.3,0,2.4-1,2.4-2.4v-2
					c0-1.3-1-2.2-2.1-2.4l0.7-0.9c0.9-1.1,1.3-2.4,1.3-3.7C71.8,49.3,69.2,46.9,66.1,46.9L66.1,46.9z"/>
			</g>
		</g>
	</g>
</g>
<g>
	<g transform="translate(194.896649, 271.732014)">
		<g>
			<g>
				<path class="st7" d="M66.1,62.5c-2.7,0-4.8-2-4.8-4.7c0-0.7,0.6-1.3,1.3-1.3h1.3c-0.2-0.1-0.4-0.3-0.5-0.4
					c-0.2-0.4-0.2-0.9,0-1.3l1.4-2.4h-1.8c-0.7,0-1.3-0.6-1.3-1.3v-1.9c0-0.7,0.6-1.3,1.3-1.3h7c0.4,0,0.9,0.2,1.1,0.6
					s0.2,0.8,0.1,1.3l-2,3.5c1.3,0.9,2.1,2.4,2.1,4.3C71.1,61,68.6,62.5,66.1,62.5z M65.1,56.7c0.4,0.2,0.7,0.6,0.7,1.1
					c0,0.2,0.3,0.2,0.3,0.2c0.4,0,0.4-0.5,0.4-0.6c0-0.3-0.1-0.7-0.6-0.7H65.1z"/>
				<path class="st0" d="M69.9,49.1c0.1,0,0.2,0.1,0.1,0.2l-2.5,4.5c1.6,0.4,2.5,1.9,2.5,3.8c0,2.7-1.9,3.8-3.9,3.8
					c-2,0-3.7-1.4-3.7-3.6c0-0.1,0.1-0.1,0.1-0.1h2c0.1,0,0.1,0.1,0.1,0.1c0,0.8,0.7,1.3,1.4,1.3c1,0,1.6-0.9,1.6-1.7
					c0-1-0.7-1.8-1.6-1.9h-1.6c-0.1,0-0.2-0.1-0.1-0.2l2.4-4.1h-3.7c-0.1,0-0.1-0.1-0.1-0.1v-1.9c0-0.1,0.1-0.1,0.1-0.1H69.9
					 M69.9,46.9h-7c-1.3,0-2.4,1-2.4,2.4v1.9c0,1.3,1,2.3,2.2,2.4l-0.4,0.7c-0.2,0.4-0.3,0.8-0.3,1.3c-1.1,0.1-1.9,1.1-1.9,2.2
					c0,3.3,2.5,5.8,5.9,5.8c3.6,0,6.1-2.4,6.1-6c0-1.9-0.7-3.5-1.8-4.5l1.5-2.7v-0.1v-0.1c0.4-0.7,0.4-1.6-0.1-2.3
					C71.5,47.3,70.7,46.9,69.9,46.9L69.9,46.9z"/>
			</g>
		</g>
	</g>
</g>
</svg>
