<?xml version="1.0" encoding="utf-8"?>
<!-- Generator: Adobe Illustrator 28.1.0, SVG Export Plug-In . SVG Version: 6.00 Build 0)  -->
<svg version="1.1" id="Layer_1" xmlns="http://www.w3.org/2000/svg" xmlns:xlink="http://www.w3.org/1999/xlink" x="0px" y="0px"
	 viewBox="0 0 500 500" style="enable-background:new 0 0 500 500;" xml:space="preserve">
<style type="text/css">
	.st0{fill:#FFFFFF;}
	.st1{clip-path:url(#SVGID_00000036953921561745603920000001523135928005593787_);}
	.st2{clip-path:url(#SVGID_00000091726156470854211270000007472694868395884717_);}
	.st3{clip-path:url(#SVGID_00000053527632410553997800000011019487469106983819_);}
	.st4{fill:#F534B3;}
	.st5{fill:#5E17EB;}
	.st6{fill:#34E5B5;}
</style>
<path class="st0" d="M355.1,302.1v64c7-2.5,12-9.2,12-17v-30C367.1,311.2,362.1,304.6,355.1,302.1z"/>
<g>
	<defs>
		<rect id="SVGID_1_" x="300" y="276" width="44" height="114.8"/>
	</defs>
	<clipPath id="SVGID_00000159464870523579517250000016893724809420954788_">
		<use xlink:href="#SVGID_1_"  style="overflow:visible;"/>
	</clipPath>
	<g style="clip-path:url(#SVGID_00000159464870523579517250000016893724809420954788_);">
		<path class="st0" d="M331.1,277h-18c-6.6,0-12,5.4-12,12v90.1c0,6.6,5.4,12,12,12h18c6.6,0,12-5.4,12-12V289
			C343.1,282.4,337.7,277,331.1,277z"/>
	</g>
</g>
<path class="st0" d="M132.9,319.1v30c0,7.8,5,14.5,12,17v-64C137.9,304.6,132.9,311.2,132.9,319.1z"/>
<g>
	<defs>
		<rect id="SVGID_00000148625420315791294360000010849675515234732971_" x="156" y="276" width="44" height="114.8"/>
	</defs>
	<clipPath id="SVGID_00000065764172880046428200000010507588810998758534_">
		<use xlink:href="#SVGID_00000148625420315791294360000010849675515234732971_"  style="overflow:visible;"/>
	</clipPath>
	<g style="clip-path:url(#SVGID_00000065764172880046428200000010507588810998758534_);">
		<path class="st0" d="M186.9,277h-18c-6.6,0-12,5.4-12,12v90.1c0,6.6,5.4,12,12,12h18c6.6,0,12-5.4,12-12V289
			C198.9,282.4,193.5,277,186.9,277z"/>
	</g>
</g>
<path class="st0" d="M328.1,162.8c-44.5-39.9-111.7-39.9-156.2,0c6.1,3.9,13.9,3.7,19.8-0.3c35-23.4,81.4-23.5,116.6,0
	C314.2,166.4,322,166.6,328.1,162.8z"/>
<g>
	<defs>
		<rect id="SVGID_00000047055241657951170690000012490653908429849737_" x="108.8" y="108.8" width="282" height="223.2"/>
	</defs>
	<clipPath id="SVGID_00000144315897102434254480000004427283129320571034_">
		<use xlink:href="#SVGID_00000047055241657951170690000012490653908429849737_"  style="overflow:visible;"/>
	</clipPath>
	<g style="clip-path:url(#SVGID_00000144315897102434254480000004427283129320571034_);">
		<path class="st0" d="M250,108.8c-77.8,0-141.2,63.3-141.2,141.2v69.1c0,6.6,5.4,12,12,12c0-11.7,0-70.6,0-81.1
			c0-71.4,57.8-129.2,129.2-129.2c71.4,0,129.2,57.8,129.2,129.2c0,11.8,0,70.8,0,81.1c6.6,0,12-5.4,12-12V250
			C391.2,172.2,327.8,108.8,250,108.8z"/>
	</g>
</g>
<g>
	<g transform="translate(98.829308, 200.16539)">
		<g>
			<path class="st4" d="M84.9,65.7L59.8,1c-0.2-0.7-1.4-0.7-1.7,0L33,65.7c-0.2,0.5,0.1,1,0.8,1h11.3c0.3,0,0.7-0.2,0.8-0.5
				l12.9-36.9L72,66.2c0.1,0.3,0.5,0.5,0.7,0.5h11.4C84.7,66.7,85.2,66.2,84.9,65.7z"/>
		</g>
	</g>
</g>
<g>
	<g transform="translate(137.436867, 199.657105)">
		<g>
			<path class="st0" d="M105.1,50.6h12.6V1.1c0-0.3-0.3-0.7-0.9-0.7h-10.9c-0.3,0-0.7,0.2-0.9,0.5L82.3,49.3L58.6,0.9
				c-0.1-0.2-0.6-0.5-0.8-0.5H46.6c-0.6,0-0.8,0.4-0.8,0.7v64.7c0,0.3,0.2,0.7,0.8,0.7h10.9c0.5,0,0.9-0.4,0.9-0.7V28.7l18,34.8
				c0.1,0.2,0.6,0.5,0.8,0.5h10.2c0.2,0,0.7-0.2,0.7-0.5l16.9-33.8V50.6z"/>
		</g>
	</g>
</g>
<g>
	<g transform="translate(181.804109, 199.830762)">
		<g>
			<path class="st0" d="M83.1-0.4H61.4c-0.4,0-0.8,0.4-0.8,0.8v11.6h22.5c1.5,0,9.9,0.4,9.9,7.8s-8.2,7.5-9.9,7.5H60.6v38.6
				c0,0.3,0.4,0.8,0.8,0.8h10.9c0.6,0,0.8-0.4,0.8-0.8V39.6h10c1.6,0,22.6-0.2,22.6-19.9S85.8-0.4,83.1-0.4z"/>
		</g>
	</g>
</g>
<g>
	<g transform="translate(216.192206, 199.589047)">
		<g>
			<path class="st5" d="M103.5,54.2H84.7V39.3h26c0.5,0,0.9-0.4,0.9-0.7V28.1c0-0.4-0.4-0.7-0.9-0.7h-26v-15h18.8v-12H73
				c-0.5,0-0.9,0.4-0.9,0.7v64.7c0,0.3,0.4,0.7,0.9,0.7h30.5V54.2z"/>
		</g>
	</g>
</g>
<g>
	<g transform="translate(236.380887, 199.589047)">
		<g>
			<path class="st6" d="M90.5,0.3H79.7c-0.5,0-0.9,0.4-0.9,0.7v26h12.7V12.4c14.4-0.7,25.1,5.3,25.1,21c0,20.4-17,21.3-25.1,20.9
				V39.8H78.8v26c0,0.3,0.4,0.7,0.9,0.7h10.8c16.5,0,38.7-4.8,38.7-33.1C129.3,4.1,106.7,0.3,90.5,0.3z"/>
		</g>
	</g>
</g>
<g>
	<g transform="translate(174.42452, 249.982044)">
		<g>
			<path class="st0" d="M66,80.2h-4.7v-3.7h6.5c0.1,0,0.2-0.1,0.2-0.2v-2.6c0-0.1-0.1-0.2-0.2-0.2h-6.5v-3.8H66v-3h-7.7
				c-0.1,0-0.2,0.1-0.2,0.2v16.2c0,0.1,0.1,0.2,0.2,0.2H66V80.2z"/>
		</g>
	</g>
</g>
<g>
	<g transform="translate(182.230993, 249.982044)">
		<g>
			<path class="st0" d="M68.4,74.1c-1.2-0.6-2.3-0.6-2.4-0.6c-1.1,0-2.1-0.6-2.1-1.8c0-1.3,0.9-2,2.1-2c1.1,0,2,0.6,2,1.7
				c0,0.1,0.1,0.2,0.2,0.2h2.6c0.1,0,0.2-0.1,0.2-0.2c0-2.8-2.2-4.7-5.1-4.7c-2.7,0-5.2,1.9-5.2,5c0,1.9,1,3.4,2.7,4.2
				c1.2,0.6,2.3,0.6,2.5,0.6c0.9,0,2.1,0.8,2.1,2c0,1.1-1,1.8-2.1,1.8c0,0,0,0,0,0v3c0,0,0,0,0,0c2.7,0,5.1-1.7,5.1-4.8
				C71.1,76.5,70.1,74.9,68.4,74.1z"/>
		</g>
	</g>
</g>
<g>
	<g transform="translate(190.34847, 249.982044)">
		<g>
			<path class="st0" d="M66.9,72.7v10.4c0,0.1,0.1,0.2,0.2,0.2h2.7c0.1,0,0.2-0.1,0.2-0.2V72.7H66.9z M63.7,69.6h9.5
				c0.1,0,0.2-0.1,0.2-0.2v-2.5c0-0.1-0.1-0.2-0.2-0.2h-9.5c-0.1,0-0.2,0.1-0.2,0.2v2.5C63.4,69.5,63.6,69.6,63.7,69.6z"/>
		</g>
	</g>
</g>
<g>
	<g transform="translate(198.201588, 249.982044)">
		<g>
			<path class="st0" d="M69.1,81.9c0-0.8-0.7-1.5-1.5-1.5c-0.8,0-1.5,0.7-1.5,1.5c0,0.8,0.7,1.5,1.5,1.5
				C68.4,83.3,69.1,82.7,69.1,81.9z"/>
		</g>
	</g>
</g>
<g>
	<g transform="translate(171.881552, 271.732043)">
		<g>
			<path class="st0" d="M67.1,87.7c0-0.1-0.1-0.2-0.2-0.2h-5.7l4.6-6c0.8-1.1,1.2-2.2,1.2-3.2c0-2.5-2.3-4.3-4.7-4.3
				c-3.3,0-4.7,2.1-4.7,4.8c0,0.1,0.1,0.2,0.2,0.2h2.5c0.1,0,0.2-0.1,0.2-0.2c0-1.2,0.9-1.7,1.8-1.7c0.8,0,1.5,0.6,1.5,1.4
				c0,0.4-0.2,0.9-0.6,1.5l-5.8,8v2.5c0,0.1,0.1,0.2,0.2,0.2h9.3c0.1,0,0.2-0.1,0.2-0.2V87.7z"/>
		</g>
	</g>
</g>
<g>
	<g transform="translate(179.59472, 271.732043)">
		<g>
			<path class="st0" d="M64.7,90.6c2.4,0,4.8-1.6,4.8-4.6v-7.3c0-3-2.4-4.6-4.8-4.6c-2.4,0-4.8,1.6-4.8,4.6v7.3
				C59.9,89,62.3,90.6,64.7,90.6z M64.7,76.7c0.8,0,1.7,0.6,1.7,1.8V86c0,1.2-0.9,1.8-1.7,1.8c-0.8,0-1.7-0.6-1.7-1.8v-7.6
				C63,77.3,63.8,76.7,64.7,76.7z"/>
		</g>
	</g>
</g>
<g>
	<g transform="translate(187.18348, 271.732043)">
		<g>
			<path class="st0" d="M72.2,87.7c0-0.1-0.1-0.2-0.2-0.2h-5.7l4.6-6c0.8-1.1,1.2-2.2,1.2-3.2c0-2.5-2.3-4.3-4.7-4.3
				c-3.3,0-4.7,2.1-4.7,4.8c0,0.1,0.1,0.2,0.2,0.2h2.5c0.1,0,0.2-0.1,0.2-0.2c0-1.2,0.9-1.7,1.8-1.7c0.8,0,1.5,0.6,1.5,1.4
				c0,0.4-0.2,0.9-0.6,1.5l-5.8,8v2.5c0,0.1,0.1,0.2,0.2,0.2H72c0.1,0,0.2-0.1,0.2-0.2V87.7z"/>
		</g>
	</g>
</g>
<g>
	<g transform="translate(194.896649, 271.732043)">
		<g>
			<path class="st0" d="M67.5,82.5c-0.1,0.1,0,0.3,0.2,0.3h2.2c1.3,0.1,2.2,1.1,2.2,2.5c0,1.1-0.7,2.3-2.1,2.3c-1,0-1.9-0.7-1.9-1.8
				c0-0.1-0.1-0.2-0.2-0.2h-2.7c-0.1,0-0.2,0.1-0.2,0.2c0,3,2.3,4.8,5,4.8c2.7,0,5.3-1.5,5.3-5.1c0-2.6-1.2-4.5-3.4-5.1l3.4-6.1
				c0.1-0.2,0-0.3-0.2-0.3h-9.4c-0.1,0-0.2,0.1-0.2,0.2v2.6c0,0.1,0.1,0.2,0.2,0.2h5L67.5,82.5z"/>
		</g>
	</g>
</g>
</svg>
